<?xml version="1.0" encoding="UTF-8" standalone="no"?>
<!DOCTYPE svg PUBLIC "-//W3C//DTD SVG 1.1//EN"
 "http://www.w3.org/Graphics/SVG/1.1/DTD/svg11.dtd">
<!-- Generated by graphviz version 10.0.1 (0)
 -->
<!-- Title: flake Pages: 1 -->
<svg width="455pt" height="889pt"
 viewBox="0.00 0.00 454.75 889.00" xmlns="http://www.w3.org/2000/svg" xmlns:xlink="http://www.w3.org/1999/xlink">
<g id="graph0" class="graph" transform="scale(1 1) rotate(0) translate(4 885)">
<title>flake</title>
<polygon fill="white" stroke="none" points="-4,4 -4,-885 450.75,-885 450.75,4 -4,4"/>
<g id="clust1" class="cluster">
<title>cluster_flake</title>
<polygon fill="#ffffff" stroke="#ffffff" points="8,-8 8,-873 438.75,-873 438.75,-8 8,-8"/>
</g>
<g id="clust2" class="cluster">
<title>cluster_common</title>
<polygon fill="#e0f8ba" stroke="#e0f8ba" points="112,-16 112,-286 430.75,-286 430.75,-16 112,-16"/>
<text text-anchor="middle" x="271.38" y="-268.7" font-family="Times,serif" font-size="14.00">common</text>
</g>
<g id="clust3" class="cluster">
<title>cluster_common_overlays</title>
<polygon fill="#cfeba2" stroke="#cfeba2" points="120,-24 120,-209 422.75,-209 422.75,-24 120,-24"/>
<text text-anchor="middle" x="271.38" y="-191.7" font-family="Times,serif" font-size="14.00">overlays</text>
</g>
<g id="clust4" class="cluster">
<title>cluster_hosts</title>
<polygon fill="#f4cfee" stroke="#f4cfee" points="156.75,-294 156.75,-533 386,-533 386,-294 156.75,-294"/>
<text text-anchor="middle" x="271.38" y="-515.7" font-family="Times,serif" font-size="14.00">hosts</text>
</g>
<g id="clust5" class="cluster">
<title>cluster_users</title>
<polygon fill="#caeefb" stroke="#caeefb" points="142,-541 142,-865 400.75,-865 400.75,-541 142,-541"/>
<text text-anchor="middle" x="271.38" y="-847.7" font-family="Times,serif" font-size="14.00">users</text>
</g>
<g id="clust6" class="cluster">
<title>cluster_users_desktops</title>
<polygon fill="#a3e0f7" stroke="#a3e0f7" points="150,-549 150,-626 392.75,-626 392.75,-549 150,-549"/>
<text text-anchor="middle" x="271.38" y="-608.7" font-family="Times,serif" font-size="14.00">desktops</text>
</g>
<!-- flake.nix -->
<g id="node1" class="node">
<title>flake.nix</title>
<polygon fill="#fdd8f4" stroke="#fdd8f4" points="92,-546 16,-546 16,-510 92,-510 92,-546"/>
<text text-anchor="middle" x="54" y="-523.33" font-family="Times,serif" font-size="14.00">flake.nix</text>
</g>
<!-- /common/nix&#45;settings.nix -->
<g id="node2" class="node">
<title>/common/nix&#45;settings.nix</title>
<polygon fill="#cfeba2" stroke="#cfeba2" points="368.62,-253 174.12,-253 174.12,-217 368.62,-217 368.62,-253"/>
<text text-anchor="middle" x="271.38" y="-230.32" font-family="Times,serif" font-size="14.00">/common/nix&#45;settings.nix</text>
</g>
<!-- flake.nix&#45;&#45;/common/nix&#45;settings.nix -->
<g id="edge1" class="edge">
<title>flake.nix&#45;&#45;/common/nix&#45;settings.nix</title>
<path fill="none" stroke="black" d="M57.09,-509.85C63.16,-460.06 82.27,-322.83 112,-290 128.31,-271.98 150.83,-259.87 173.78,-251.72"/>
</g>
<!-- /host/ozpc/configuration.nix -->
<g id="node3" class="node">
<title>/host/ozpc/configuration.nix</title>
<polygon fill="#e7b0e0" stroke="#e7b0e0" points="378,-338 164.75,-338 164.75,-302 378,-302 378,-338"/>
<text text-anchor="middle" x="271.38" y="-315.32" font-family="Times,serif" font-size="14.00">/host/ozpc/configuration.nix</text>
</g>
<!-- flake.nix&#45;&#45;/host/ozpc/configuration.nix -->
<g id="edge2" class="edge">
<title>flake.nix&#45;&#45;/host/ozpc/configuration.nix</title>
<path fill="none" stroke="black" d="M54.91,-509.54C55.82,-472.57 63.46,-389.34 112,-347 126.71,-334.17 145.22,-326.33 164.35,-321.72"/>
</g>
<!-- /host/ozpc/hardware.nix -->
<g id="node4" class="node">
<title>/host/ozpc/hardware.nix</title>
<polygon fill="#e7b0e0" stroke="#e7b0e0" points="364.88,-392 177.88,-392 177.88,-356 364.88,-356 364.88,-392"/>
<text text-anchor="middle" x="271.38" y="-369.32" font-family="Times,serif" font-size="14.00">/host/ozpc/hardware.nix</text>
</g>
<!-- flake.nix&#45;&#45;/host/ozpc/hardware.nix -->
<g id="edge3" class="edge">
<title>flake.nix&#45;&#45;/host/ozpc/hardware.nix</title>
<path fill="none" stroke="black" d="M57.73,-509.51C62.93,-481.34 77.03,-428.08 112,-401 130.64,-386.57 154.22,-378.72 177.46,-374.69"/>
</g>
<!-- /host/ozpc/secrets.nix -->
<g id="node5" class="node">
<title>/host/ozpc/secrets.nix</title>
<polygon fill="#e7b0e0" stroke="#e7b0e0" points="356.62,-446 186.12,-446 186.12,-410 356.62,-410 356.62,-446"/>
<text text-anchor="middle" x="271.38" y="-423.32" font-family="Times,serif" font-size="14.00">/host/ozpc/secrets.nix</text>
</g>
<!-- flake.nix&#45;&#45;/host/ozpc/secrets.nix -->
<g id="edge4" class="edge">
<title>flake.nix&#45;&#45;/host/ozpc/secrets.nix</title>
<path fill="none" stroke="black" d="M64.07,-509.82C73.59,-492.78 90.19,-468.03 112,-455 134.03,-441.84 160.68,-434.66 185.79,-430.85"/>
</g>
<!-- /host/ozpc/services.nix -->
<g id="node6" class="node">
<title>/host/ozpc/services.nix</title>
<polygon fill="#e7b0e0" stroke="#e7b0e0" points="360,-500 182.75,-500 182.75,-464 360,-464 360,-500"/>
<text text-anchor="middle" x="271.38" y="-477.32" font-family="Times,serif" font-size="14.00">/host/ozpc/services.nix</text>
</g>
<!-- flake.nix&#45;&#45;/host/ozpc/services.nix -->
<g id="edge5" class="edge">
<title>flake.nix&#45;&#45;/host/ozpc/services.nix</title>
<path fill="none" stroke="black" d="M92.02,-520.09C117.28,-514.7 151.82,-507.32 183.78,-500.49"/>
</g>
<!-- /users/oz/home.nix -->
<g id="node7" class="node">
<title>/users/oz/home.nix</title>
<polygon fill="#a3e0f7" stroke="#a3e0f7" points="346.12,-670 196.62,-670 196.62,-634 346.12,-634 346.12,-670"/>
<text text-anchor="middle" x="271.38" y="-647.33" font-family="Times,serif" font-size="14.00">/users/oz/home.nix</text>
</g>
<!-- flake.nix&#45;&#45;/users/oz/home.nix -->
<g id="edge6" class="edge">
<title>flake.nix&#45;&#45;/users/oz/home.nix</title>
<path fill="none" stroke="black" d="M59.71,-546.16C66.82,-569.66 82.69,-609.97 112,-630 136.41,-646.68 167.92,-653.29 196.39,-655.32"/>
</g>
<!-- /users/oz/packages.nix -->
<g id="node8" class="node">
<title>/users/oz/packages.nix</title>
<polygon fill="#a3e0f7" stroke="#a3e0f7" points="359.62,-724 183.12,-724 183.12,-688 359.62,-688 359.62,-724"/>
<text text-anchor="middle" x="271.38" y="-701.33" font-family="Times,serif" font-size="14.00">/users/oz/packages.nix</text>
</g>
<!-- flake.nix&#45;&#45;/users/oz/packages.nix -->
<g id="edge7" class="edge">
<title>flake.nix&#45;&#45;/users/oz/packages.nix</title>
<path fill="none" stroke="black" d="M56.25,-546.44C59.48,-578.71 71.03,-645.23 112,-679 131.69,-695.23 157.54,-703.31 182.63,-706.99"/>
</g>
<!-- /users/oz/programs.nix -->
<g id="node9" class="node">
<title>/users/oz/programs.nix</title>
<polygon fill="#a3e0f7" stroke="#a3e0f7" points="361.12,-778 181.62,-778 181.62,-742 361.12,-742 361.12,-778"/>
<text text-anchor="middle" x="271.38" y="-755.33" font-family="Times,serif" font-size="14.00">/users/oz/programs.nix</text>
</g>
<!-- flake.nix&#45;&#45;/users/oz/programs.nix -->
<g id="edge8" class="edge">
<title>flake.nix&#45;&#45;/users/oz/programs.nix</title>
<path fill="none" stroke="black" d="M54.11,-546.33C53.24,-586.71 57.29,-683.62 112,-733 130.84,-750.01 156.3,-758.33 181.29,-762"/>
</g>
<!-- /users/oz/secrets.nix -->
<g id="node10" class="node">
<title>/users/oz/secrets.nix</title>
<polygon fill="#a3e0f7" stroke="#a3e0f7" points="352.5,-832 190.25,-832 190.25,-796 352.5,-796 352.5,-832"/>
<text text-anchor="middle" x="271.38" y="-809.33" font-family="Times,serif" font-size="14.00">/users/oz/secrets.nix</text>
</g>
<!-- flake.nix&#45;&#45;/users/oz/secrets.nix -->
<g id="edge9" class="edge">
<title>flake.nix&#45;&#45;/users/oz/secrets.nix</title>
<path fill="none" stroke="black" d="M56.44,-546.47C60.99,-600 76.93,-753.56 112,-787 132.69,-806.73 162.2,-814.99 190.16,-817.8"/>
</g>
<!-- /users/oz/desktops/gnome.nix -->
<g id="node11" class="node">
<title>/users/oz/desktops/gnome.nix</title>
<polygon fill="#81c8e2" stroke="#81c8e2" points="384.75,-593 158,-593 158,-557 384.75,-557 384.75,-593"/>
<text text-anchor="middle" x="271.38" y="-570.33" font-family="Times,serif" font-size="14.00">/users/oz/desktops/gnome.nix</text>
</g>
<!-- flake.nix&#45;&#45;/users/oz/desktops/gnome.nix -->
<g id="edge10" class="edge">
<title>flake.nix&#45;&#45;/users/oz/desktops/gnome.nix</title>
<path fill="none" stroke="black" d="M92.02,-536.08C117.76,-541.7 153.14,-549.42 185.61,-556.5"/>
</g>
<!-- /common/overlays/mcman.nix -->
<g id="node12" class="node">
<title>/common/overlays/mcman.nix</title>
<polygon fill="#b6d780" stroke="#b6d780" points="385.12,-68 157.62,-68 157.62,-32 385.12,-32 385.12,-68"/>
<text text-anchor="middle" x="271.38" y="-45.33" font-family="Times,serif" font-size="14.00">/common/overlays/mcman.nix</text>
</g>
<!-- /common/overlays/displayswitcher.nix -->
<g id="node13" class="node">
<title>/common/overlays/displayswitcher.nix</title>
<polygon fill="#b6d780" stroke="#b6d780" points="414.75,-122 128,-122 128,-86 414.75,-86 414.75,-122"/>
<text text-anchor="middle" x="271.38" y="-99.33" font-family="Times,serif" font-size="14.00">/common/overlays/displayswitcher.nix</text>
</g>
<!-- /common/overlays/arcmenu.nix -->
<g id="node14" class="node">
<title>/common/overlays/arcmenu.nix</title>
<polygon fill="#b6d780" stroke="#b6d780" points="390.38,-176 152.38,-176 152.38,-140 390.38,-140 390.38,-176"/>
<text text-anchor="middle" x="271.38" y="-153.32" font-family="Times,serif" font-size="14.00">/common/overlays/arcmenu.nix</text>
</g>
</g>
</svg>
