<?xml version="1.0" encoding="UTF-8" standalone="no"?>
<!DOCTYPE svg PUBLIC "-//W3C//DTD SVG 1.1//EN"
 "http://www.w3.org/Graphics/SVG/1.1/DTD/svg11.dtd">
<!-- Generated by graphviz version 10.0.1 (0)
 -->
<!-- Title: flake Pages: 1 -->
<svg width="455pt" height="889pt"
 viewBox="0.00 0.00 454.75 889.00" xmlns="http://www.w3.org/2000/svg" xmlns:xlink="http://www.w3.org/1999/xlink">
<g id="graph0" class="graph" transform="scale(1 1) rotate(0) translate(4 885)">
<title>flake</title>
<polygon fill="white" stroke="none" points="-4,4 -4,-885 450.75,-885 450.75,4 -4,4"/>
<g id="clust1" class="cluster">
<title>cluster_flake</title>
<polygon fill="#ffffff" stroke="#ffffff" points="8,-8 8,-873 438.75,-873 438.75,-8 8,-8"/>
</g>
<g id="clust2" class="cluster">
<title>cluster_common</title>
<polygon fill="#e0f8ba" stroke="#e0f8ba" points="112,-16 112,-286 430.75,-286 430.75,-16 112,-16"/>
<text text-anchor="middle" x="271.38" y="-268.7" font-family="Times,serif" font-size="14.00">common</text>
</g>
<g id="clust3" class="cluster">
<title>cluster_common_overlays</title>
<polygon fill="#cfeba2" stroke="#cfeba2" points="120,-24 120,-209 422.75,-209 422.75,-24 120,-24"/>
<text text-anchor="middle" x="271.38" y="-191.7" font-family="Times,serif" font-size="14.00">overlays</text>
</g>
<g id="clust4" class="cluster">
<title>cluster_hosts</title>
<polygon fill="#f4cfee" stroke="#f4cfee" points="156.75,-294 156.75,-533 386,-533 386,-294 156.75,-294"/>
<text text-anchor="middle" x="271.38" y="-515.7" font-family="Times,serif" font-size="14.00">hosts</text>
</g>
<g id="clust5" class="cluster">
<title>cluster_users</title>
<polygon fill="#caeefb" stroke="#caeefb" points="142,-541 142,-865 400.75,-865 400.75,-541 142,-541"/>
<text text-anchor="middle" x="271.38" y="-847.7" font-family="Times,serif" font-size="14.00">users</text>
</g>
<g id="clust6" class="cluster">
<title>cluster_users_desktops</title>
<polygon fill="#a3e0f7" stroke="#a3e0f7" points="150,-549 150,-626 392.75,-626 392.75,-549 150,-549"/>
<text text-anchor="middle" x="271.38" y="-608.7" font-family="Times,serif" font-size="14.00">desktops</text>
</g>
<!-- flake.nix -->
<g id="node1" class="node">
<title>flake.nix</title>
<polygon fill="#fdd8f4" stroke="#fdd8f4" points="92,-446 16,-446 16,-410 92,-410 92,-446"/>
<text text-anchor="middle" x="54" y="-423.32" font-family="Times,serif" font-size="14.00">flake.nix</text>
</g>
<!-- /common/nix&#45;settings.nix -->
<g id="node2" class="node">
<title>/common/nix&#45;settings.nix</title>
<polygon fill="#cfeba2" stroke="#cfeba2" points="368.62,-253 174.12,-253 174.12,-217 368.62,-217 368.62,-253"/>
<text text-anchor="middle" x="271.38" y="-230.32" font-family="Times,serif" font-size="14.00">/common/nix&#45;settings.nix</text>
</g>
<!-- flake.nix&#45;&#45;/common/nix&#45;settings.nix -->
<g id="edge1" class="edge">
<title>flake.nix&#45;&#45;/common/nix&#45;settings.nix</title>
<path fill="none" stroke="black" d="M57.67,-409.64C62.89,-380.33 77.13,-322.92 112,-290 129.78,-273.22 152.94,-261.52 176.04,-253.39"/>
</g>
<!-- /host/ozpc/configuration.nix -->
<g id="node3" class="node">
<title>/host/ozpc/configuration.nix</title>
<polygon fill="#e7b0e0" stroke="#e7b0e0" points="378,-338 164.75,-338 164.75,-302 378,-302 378,-338"/>
<text text-anchor="middle" x="271.38" y="-315.32" font-family="Times,serif" font-size="14.00">/host/ozpc/configuration.nix</text>
</g>
<!-- flake.nix&#45;&#45;/host/ozpc/configuration.nix -->
<g id="edge2" class="edge">
<title>flake.nix&#45;&#45;/host/ozpc/configuration.nix</title>
<path fill="none" stroke="black" d="M62.72,-409.62C71.67,-390.71 88.3,-361.96 112,-347 127.68,-337.1 145.91,-330.52 164.29,-326.2"/>
</g>
<!-- /host/ozpc/hardware.nix -->
<g id="node4" class="node">
<title>/host/ozpc/hardware.nix</title>
<polygon fill="#e7b0e0" stroke="#e7b0e0" points="364.88,-392 177.88,-392 177.88,-356 364.88,-356 364.88,-392"/>
<text text-anchor="middle" x="271.38" y="-369.32" font-family="Times,serif" font-size="14.00">/host/ozpc/hardware.nix</text>
</g>
<!-- flake.nix&#45;&#45;/host/ozpc/hardware.nix -->
<g id="edge3" class="edge">
<title>flake.nix&#45;&#45;/host/ozpc/hardware.nix</title>
<path fill="none" stroke="black" d="M89.97,-409.6C97.12,-406.37 104.69,-403.31 112,-401 132.88,-394.41 155.85,-389.33 177.66,-385.44"/>
</g>
<!-- /host/ozpc/secrets.nix -->
<g id="node5" class="node">
<title>/host/ozpc/secrets.nix</title>
<polygon fill="#e7b0e0" stroke="#e7b0e0" points="356.62,-446 186.12,-446 186.12,-410 356.62,-410 356.62,-446"/>
<text text-anchor="middle" x="271.38" y="-423.32" font-family="Times,serif" font-size="14.00">/host/ozpc/secrets.nix</text>
</g>
<!-- flake.nix&#45;&#45;/host/ozpc/secrets.nix -->
<g id="edge4" class="edge">
<title>flake.nix&#45;&#45;/host/ozpc/secrets.nix</title>
<path fill="none" stroke="black" d="M92.02,-428C117.88,-428 153.47,-428 186.06,-428"/>
</g>
<!-- /host/ozpc/services.nix -->
<g id="node6" class="node">
<title>/host/ozpc/services.nix</title>
<polygon fill="#e7b0e0" stroke="#e7b0e0" points="360,-500 182.75,-500 182.75,-464 360,-464 360,-500"/>
<text text-anchor="middle" x="271.38" y="-477.32" font-family="Times,serif" font-size="14.00">/host/ozpc/services.nix</text>
</g>
<!-- flake.nix&#45;&#45;/host/ozpc/services.nix -->
<g id="edge5" class="edge">
<title>flake.nix&#45;&#45;/host/ozpc/services.nix</title>
<path fill="none" stroke="black" d="M89.97,-446.4C97.12,-449.63 104.69,-452.69 112,-455 134.48,-462.09 159.37,-467.44 182.64,-471.43"/>
</g>
<!-- /users/oz/home.nix -->
<g id="node7" class="node">
<title>/users/oz/home.nix</title>
<polygon fill="#a3e0f7" stroke="#a3e0f7" points="346.12,-670 196.62,-670 196.62,-634 346.12,-634 346.12,-670"/>
<text text-anchor="middle" x="271.38" y="-647.33" font-family="Times,serif" font-size="14.00">/users/oz/home.nix</text>
</g>
<!-- flake.nix&#45;&#45;/users/oz/home.nix -->
<g id="edge6" class="edge">
<title>flake.nix&#45;&#45;/users/oz/home.nix</title>
<path fill="none" stroke="black" d="M57.58,-446.26C64.33,-491.25 83.91,-605.52 112,-630 134.81,-649.88 166.91,-656.82 196.25,-658.23"/>
</g>
<!-- /users/oz/packages.nix -->
<g id="node8" class="node">
<title>/users/oz/packages.nix</title>
<polygon fill="#a3e0f7" stroke="#a3e0f7" points="359.62,-724 183.12,-724 183.12,-688 359.62,-688 359.62,-724"/>
<text text-anchor="middle" x="271.38" y="-701.33" font-family="Times,serif" font-size="14.00">/users/oz/packages.nix</text>
</g>
<!-- flake.nix&#45;&#45;/users/oz/packages.nix -->
<g id="edge7" class="edge">
<title>flake.nix&#45;&#45;/users/oz/packages.nix</title>
<path fill="none" stroke="black" d="M56.56,-446.28C61.4,-498.5 77.93,-646.74 112,-679 130.94,-696.93 157.17,-705.37 182.84,-708.85"/>
</g>
<!-- /users/oz/programs.nix -->
<g id="node9" class="node">
<title>/users/oz/programs.nix</title>
<polygon fill="#a3e0f7" stroke="#a3e0f7" points="361.12,-778 181.62,-778 181.62,-742 361.12,-742 361.12,-778"/>
<text text-anchor="middle" x="271.38" y="-755.33" font-family="Times,serif" font-size="14.00">/users/oz/programs.nix</text>
</g>
<!-- flake.nix&#45;&#45;/users/oz/programs.nix -->
<g id="edge8" class="edge">
<title>flake.nix&#45;&#45;/users/oz/programs.nix</title>
<path fill="none" stroke="black" d="M55.76,-446.25C58.63,-505.73 70.82,-692.47 112,-733 130.29,-751 155.89,-759.55 181.18,-763.12"/>
</g>
<!-- /users/oz/secrets.nix -->
<g id="node10" class="node">
<title>/users/oz/secrets.nix</title>
<polygon fill="#a3e0f7" stroke="#a3e0f7" points="352.5,-832 190.25,-832 190.25,-796 352.5,-796 352.5,-832"/>
<text text-anchor="middle" x="271.38" y="-809.33" font-family="Times,serif" font-size="14.00">/users/oz/secrets.nix</text>
</g>
<!-- flake.nix&#45;&#45;/users/oz/secrets.nix -->
<g id="edge9" class="edge">
<title>flake.nix&#45;&#45;/users/oz/secrets.nix</title>
<path fill="none" stroke="black" d="M55.2,-446.15C56.31,-512.15 63.64,-738.08 112,-787 132.2,-807.43 161.78,-815.79 189.93,-818.49"/>
</g>
<!-- /users/oz/desktops/gnome.nix -->
<g id="node11" class="node">
<title>/users/oz/desktops/gnome.nix</title>
<polygon fill="#81c8e2" stroke="#81c8e2" points="384.75,-593 158,-593 158,-557 384.75,-557 384.75,-593"/>
<text text-anchor="middle" x="271.38" y="-570.33" font-family="Times,serif" font-size="14.00">/users/oz/desktops/gnome.nix</text>
</g>
<!-- flake.nix&#45;&#45;/users/oz/desktops/gnome.nix -->
<g id="edge10" class="edge">
<title>flake.nix&#45;&#45;/users/oz/desktops/gnome.nix</title>
<path fill="none" stroke="black" d="M59.42,-446.09C66.35,-470.55 82.19,-513.76 112,-537 125.38,-547.43 141.19,-555.06 157.55,-560.63"/>
</g>
<!-- /common/overlays/mcman.nix -->
<g id="node12" class="node">
<title>/common/overlays/mcman.nix</title>
<polygon fill="#b6d780" stroke="#b6d780" points="385.12,-68 157.62,-68 157.62,-32 385.12,-32 385.12,-68"/>
<text text-anchor="middle" x="271.38" y="-45.33" font-family="Times,serif" font-size="14.00">/common/overlays/mcman.nix</text>
</g>
<!-- flake.nix&#45;&#45;/common/overlays/mcman.nix -->
<g id="edge11" class="edge">
<title>flake.nix&#45;&#45;/common/overlays/mcman.nix</title>
<path fill="none" stroke="black" d="M55.27,-409.81C56.63,-344.7 64.71,-124.66 112,-77 124.38,-64.53 140.25,-56.56 157.16,-51.63"/>
</g>
<!-- /common/overlays/displayswitcher.nix -->
<g id="node13" class="node">
<title>/common/overlays/displayswitcher.nix</title>
<polygon fill="#b6d780" stroke="#b6d780" points="414.75,-122 128,-122 128,-86 414.75,-86 414.75,-122"/>
<text text-anchor="middle" x="271.38" y="-99.33" font-family="Times,serif" font-size="14.00">/common/overlays/displayswitcher.nix</text>
</g>
<!-- flake.nix&#45;&#45;/common/overlays/displayswitcher.nix -->
<g id="edge12" class="edge">
<title>flake.nix&#45;&#45;/common/overlays/displayswitcher.nix</title>
<path fill="none" stroke="black" d="M55.86,-409.81C59,-351.44 71.87,-170.31 112,-131 116.78,-126.32 122.06,-122.27 127.7,-118.79"/>
</g>
<!-- /common/overlays/arcmenu.nix -->
<g id="node14" class="node">
<title>/common/overlays/arcmenu.nix</title>
<polygon fill="#b6d780" stroke="#b6d780" points="390.38,-176 152.38,-176 152.38,-140 390.38,-140 390.38,-176"/>
<text text-anchor="middle" x="271.38" y="-153.32" font-family="Times,serif" font-size="14.00">/common/overlays/arcmenu.nix</text>
</g>
<!-- flake.nix&#45;&#45;/common/overlays/arcmenu.nix -->
<g id="edge13" class="edge">
<title>flake.nix&#45;&#45;/common/overlays/arcmenu.nix</title>
<path fill="none" stroke="black" d="M56.58,-409.52C61.43,-357.44 77.87,-211.25 112,-180 123.36,-169.59 137.24,-162.67 152.01,-158.2"/>
</g>
</g>
</svg>
